<svg width="22" height="22" viewBox="0 0 22 22" xmlns="http://www.w3.org/2000/svg"><title>Facebook</title><g fill="none" fill-rule="evenodd"><path d="M-1-1h24v24H-1z"/><path d="M21.8 20.608c0 .658-.534 1.192-1.192 1.192h-5.504v-8.365h2.807l.421-3.26h-3.228v-2.08c0-.944.262-1.588 1.615-1.588h1.727V3.59a22.972 22.972 0 0 0-2.516-.129c-2.489 0-4.192 1.52-4.192 4.31v2.403H8.923v3.26h2.815V21.8H1.392A1.192 1.192 0 0 1 .2 20.608V1.392C.2.734.734.2 1.392.2h19.216c.658 0 1.192.534 1.192 1.192v19.216" fill="#FFF"/></g></svg>