<svg width="22" height="21" viewBox="0 0 22 21" xmlns="http://www.w3.org/2000/svg"><title>LinkedIn</title><g fill="none" fill-rule="evenodd"><path d="M-1-1h24v24H-1z"/><path d="M.745 7.15h4.21V20.6H.744V7.15zm15.712-.13c2.992 0 5.343 1.935 5.343 6.1v7.48h-4.774v-6.96c0-1.822-.746-3.066-2.389-3.066-1.256 0-1.954.84-2.28 1.648-.121.29-.102.695-.102 1.1V20.6h-4.73s.061-12.33 0-13.45h4.73v2.11c.28-.922 1.79-2.24 4.202-2.24zM2.772.8C4.325.8 5.28 1.804 5.31 3.132c0 1.303-.985 2.335-2.568 2.335h-.03C1.188 5.467.2 4.44.2 3.136.2 1.806 1.217.8 2.772.8z" fill="#FFF"/></g></svg>