<svg xmlns="http://www.w3.org/2000/svg" width="329.143" height="95.108" viewBox="0 0 329.143 95.108">
  <g id="Group_11812" data-name="Group 11812" transform="translate(0.001)">
    <g id="Group_11269" data-name="Group 11269" transform="translate(-0.001)">
      <path id="Path_17404" data-name="Path 17404" d="M92.714,6.113A6.114,6.114,0,1,1,86.6,0h0a6.114,6.114,0,0,1,6.114,6.113" transform="translate(-28.081)" fill="#fff"/>
      <path id="Path_17405" data-name="Path 17405" d="M92.714,59.768A6.114,6.114,0,1,1,86.6,53.657h0a6.114,6.114,0,0,1,6.114,6.111" transform="translate(-28.081 -18.721)" fill="#fff"/>
      <path id="Path_17406" data-name="Path 17406" d="M92.714,32.945A6.114,6.114,0,1,1,86.6,26.832h0a6.115,6.115,0,0,1,6.114,6.113" transform="translate(-28.081 -9.362)" fill="#fff"/>
      <path id="Path_17407" data-name="Path 17407" d="M92.714,86.6A6.114,6.114,0,1,1,86.6,80.49h0A6.12,6.12,0,0,1,92.714,86.6" transform="translate(-28.081 -28.083)" fill="#fff"/>
      <path id="Path_17408" data-name="Path 17408" d="M92.715,113.428a6.117,6.117,0,0,1-6.12,6.113c-.059,0-.118,0-.178,0a6.18,6.18,0,0,1-5.925-5.948,6.113,6.113,0,1,1,12.222-.309q0,.073,0,.146" transform="translate(-28.082 -37.445)" fill="#fff"/>
      <path id="Path_17409" data-name="Path 17409" d="M65.885,59.768a6.114,6.114,0,1,1-6.116-6.111h0a6.114,6.114,0,0,1,6.113,6.111" transform="translate(-18.72 -18.721)" fill="#fff"/>
      <path id="Path_17410" data-name="Path 17410" d="M65.885,86.6a6.114,6.114,0,1,1-6.114-6.114h0A6.12,6.12,0,0,1,65.885,86.6" transform="translate(-18.72 -28.083)" fill="#fff"/>
      <path id="Path_17411" data-name="Path 17411" d="M65.885,113.436a6.114,6.114,0,1,1-6.115-6.113h0a6.116,6.116,0,0,1,6.113,6.113" transform="translate(-18.72 -37.445)" fill="#fff"/>
      <path id="Path_17412" data-name="Path 17412" d="M39.056,86.6a6.114,6.114,0,1,1-6.114-6.114h0A6.12,6.12,0,0,1,39.056,86.6" transform="translate(-9.36 -28.083)" fill="#fff"/>
      <path id="Path_17413" data-name="Path 17413" d="M39.056,113.436a6.114,6.114,0,1,1-6.115-6.113h0a6.116,6.116,0,0,1,6.114,6.113" transform="translate(-9.36 -37.445)" fill="#fff"/>
      <path id="Path_17414" data-name="Path 17414" d="M12.227,59.768A6.114,6.114,0,1,1,6.11,53.657h0a6.114,6.114,0,0,1,6.113,6.111" transform="translate(0.001 -18.721)" fill="#fff"/>
      <path id="Path_17415" data-name="Path 17415" d="M12.227,86.6A6.114,6.114,0,1,1,6.113,80.49h0A6.121,6.121,0,0,1,12.227,86.6" transform="translate(0.001 -28.083)" fill="#fff"/>
      <path id="Path_17416" data-name="Path 17416" d="M12.227,113.436a6.114,6.114,0,1,1-6.115-6.113h0a6.116,6.116,0,0,1,6.113,6.113" transform="translate(0.001 -37.445)" fill="#fff"/>
    </g>
    <path id="Path_17511" data-name="Path 17511" d="M159.483,93.262c0,9.089-6.895,16.045-15.192,16.045a12.654,12.654,0,0,1-10.678-5.124v17.834h-6.587V78.01h6.59V82.4a12.537,12.537,0,0,1,10.678-5.185C152.588,77.217,159.483,84.232,159.483,93.262Zm-6.59,0a9.637,9.637,0,1,0-9.636,9.761A9.426,9.426,0,0,0,152.893,93.262Z" transform="translate(-44.319 -26.94)" fill="#fff"/>
    <path id="Path_17512" data-name="Path 17512" d="M214.957,78.01v30.5h-6.588v-4.392a12.537,12.537,0,0,1-10.678,5.185c-8.3,0-15.192-7.016-15.192-16.045,0-9.09,6.894-16.045,15.192-16.045a12.654,12.654,0,0,1,10.678,5.124V78.01Zm-6.588,15.252a9.637,9.637,0,1,0-9.636,9.761A9.426,9.426,0,0,0,208.369,93.262Z" transform="translate(-63.674 -26.94)" fill="#fff"/>
    <path id="Path_17642" data-name="Path 17642" d="M262.834,78.434l-8.9,21.782-8.941-21.785h-7.2l12.865,29.8-5.821,14.243h6.684l18.513-44.038Z" transform="translate(-82.965 -27.364)" fill="#fff"/>
    <path id="Path_17514" data-name="Path 17514" d="M312.266,99.911c0,6.1-5.307,9.4-11.9,9.4-6.1,0-10.492-2.746-12.445-7.137l5.674-3.294c.977,2.744,3.416,4.392,6.771,4.392,2.93,0,5.186-.977,5.186-3.417,0-5.43-16.408-2.38-16.408-13.3,0-5.736,4.941-9.334,11.164-9.334,5,0,9.151,2.319,11.286,6.344l-5.553,3.112a5.944,5.944,0,0,0-5.733-3.478c-2.38,0-4.454,1.037-4.454,3.234C295.856,91.98,312.266,88.625,312.266,99.911Z" transform="translate(-100.456 -26.94)" fill="#fff"/>
    <path id="Path_17515" data-name="Path 17515" d="M329.44,93.262a15.739,15.739,0,0,1,16.106-16.045,15.069,15.069,0,0,1,13.6,7.87l-5.673,3.295a8.532,8.532,0,0,0-7.992-4.7,9.3,9.3,0,0,0-9.459,9.149c0,.143,0,.286,0,.43a9.305,9.305,0,0,0,9.026,9.576c.143,0,.286.005.43,0a8.953,8.953,0,0,0,8.114-4.7l5.673,3.233a15.336,15.336,0,0,1-13.727,7.932,15.774,15.774,0,0,1-16.1-15.438C329.437,93.666,329.437,93.464,329.44,93.262Z" transform="translate(-114.94 -26.941)" fill="#fff"/>
    <path id="Path_17516" data-name="Path 17516" d="M410.718,78.01v30.5H404.13v-4.392a12.538,12.538,0,0,1-10.678,5.185c-8.3,0-15.191-7.016-15.191-16.045,0-9.09,6.894-16.045,15.191-16.045A12.653,12.653,0,0,1,404.13,82.34V78.01ZM404.13,93.262a9.637,9.637,0,1,0-9.636,9.761A9.427,9.427,0,0,0,404.13,93.262Z" transform="translate(-131.975 -26.94)" fill="#fff"/>
    <path id="Path_17517" data-name="Path 17517" d="M438.988,56.01h6.589v45.1h-6.589Z" transform="translate(-153.162 -19.542)" fill="#fff"/>
    <path id="Path_17518" data-name="Path 17518" d="M473.915,103.269a9.311,9.311,0,0,0,7.87-3.783l5.43,3.173c-2.806,4.148-7.382,6.65-13.36,6.65-10.067,0-16.594-6.894-16.594-16.045,0-9.029,6.527-16.045,16.106-16.045,9.09,0,15.313,7.321,15.313,16.106a19.981,19.981,0,0,1-.244,2.744H464.154C465.191,100.827,469.034,103.269,473.915,103.269ZM482.03,90.7a8.489,8.489,0,0,0-8.725-7.5,8.869,8.869,0,0,0-9.212,7.5Z" transform="translate(-159.538 -26.941)" fill="#fff"/>
  </g>
</svg>
