<svg width="23" height="19" viewBox="0 0 23 19" xmlns="http://www.w3.org/2000/svg"><title>Twitter</title><g fill="none" fill-rule="evenodd"><path d="M-1-2h24v24H-1z"/><path d="M21.788.744a8.953 8.953 0 0 1-2.895 1.138A4.48 4.48 0 0 0 15.57.4c-2.513 0-4.553 2.102-4.553 4.695 0 .369.04.726.118 1.07-3.786-.196-7.141-2.064-9.389-4.907A4.798 4.798 0 0 0 1.13 3.62c0 1.628.804 3.066 2.026 3.908a4.454 4.454 0 0 1-2.064-.585V7c0 2.276 1.57 4.174 3.655 4.605-.381.11-.784.165-1.2.165a4.37 4.37 0 0 1-.857-.084c.58 1.865 2.26 3.223 4.254 3.26A8.962 8.962 0 0 1 .2 16.891 12.63 12.63 0 0 0 7.182 19C15.56 19 20.14 11.846 20.14 5.641c0-.204-.003-.409-.01-.609a9.373 9.373 0 0 0 2.27-2.43 8.848 8.848 0 0 1-2.615.739c.94-.58 1.662-1.5 2.003-2.597" fill="#FFF"/></g></svg>