<svg width="22" height="22" viewBox="0 0 22 22" xmlns="http://www.w3.org/2000/svg"><title>Instagram</title><g fill="none" fill-rule="evenodd"><path d="M-1-1h24v24H-1z"/><path d="M19.232.2H2.768A2.565 2.565 0 0 0 .2 2.762v16.476A2.564 2.564 0 0 0 2.768 21.8h16.464a2.564 2.564 0 0 0 2.568-2.562V2.762A2.565 2.565 0 0 0 19.232.2zm-3.507 3.375c0-.373.303-.675.675-.675h2.025c.373 0 .675.302.675.675V5.6a.675.675 0 0 1-.675.675H16.4a.675.675 0 0 1-.675-.675V3.575zm-4.7 3.306a4.15 4.15 0 0 1 4.154 4.144 4.15 4.15 0 0 1-4.154 4.145 4.15 4.15 0 0 1-4.153-4.145 4.15 4.15 0 0 1 4.153-4.144zm8.75 12.219a.675.675 0 0 1-.675.675H2.9a.675.675 0 0 1-.675-.675V8.975h2.7c-.352.506-.47 1.45-.47 2.05 0 3.614 2.947 6.556 6.57 6.556s6.571-2.942 6.571-6.556c0-.6-.085-1.53-.521-2.05h2.7V19.1z" fill="#FFF"/></g></svg>